#!OML:ASF F:\VICON\USERDATA\INSTALL\rory3\rory3.ASF
:FULLY-SPECIFIED
:DEGREES
109
root 1.0631253994519891 18.295173219225564 44.232215354917244 3.3727871301182697 0.4494159089440084 -2.39207870500412
lfemur -39.52070010165243 5.146280900935732 -11.982126032845919
ltibia 62.98256468536914
lfoot 1.1281576012469743 1.2099700078635571
ltoes -2.8120501903159596
rfemur -2.5858481183842095 0.21549108640766867 30.339782457345077
rtibia 70.52726640437447
rfoot -3.7147429332248603 -7.5675394426862175
rtoes -6.958994806726608
lowerback nan -0.3505373046558443 2.1290639182018554
upperback -0.5878347725707942 2.787130909316428 -0.01882722066997289
thorax -6.859703121890341 0.30210013278860465 0.9905375108041463
lowerneck -18.474247327871026 -5.460169736519615 -2.088656173500837
upperneck 5.978226473816637 -7.499971632416503 6.960102525350649
head 5.987169075706629 -2.985726783258411 1.0360958829874978
lclavicle 5.687398825508474e-14 2.962299780764402e-14
lhumerus -57.9691583295363 -6.8423263551171845 91.94945224970263
lradius 108.35832261046532
lwrist 34.57835232657577
lhand -25.21491613011411 9.03757704866734
lfingers nan
lthumb 1.5589963313464905 38.76921232949652
rclavicle 5.754873024721664e-14 3.318887833691178e-14
rhumerus -40.01274129643927 10.218006073269327 -95.3129815993492
rradius 116.70052399504715
rwrist -15.873720890104362
rhand -22.98215145951372 nan
rfingers nan
rthumb 3.685181018799968 4.18867931309768
110
root 1.0668939110734517 18.319344282373912 43.88628593264205 3.3681248199652742 1.1182404435103732 -2.207942396753384
lfemur -40.190338666172764 3.4568246756130274 -12.487749366763817
ltibia 58.80827452737725
lfoot 1.6412089359319242 1.4485479265251922
ltoes -3.2666950557674372
rfemur -1.5629094655955775 -0.5204804058857317 29.707162557516575
rtibia 68.68743002404142
rfoot 1.2315775914328126 -5.633485765455489
rtoes -5.246071824027226
lowerback nan -0.42205039061222493 2.1491399684342714
upperback -0.7208892535749126 2.7006531146300867 -0.06423295381904959
thorax -6.999619473667084 0.23789061324797683 0.9784511675722019
lowerneck -18.411963472986933 -5.5030994316537445 -2.1549169013897584
upperneck 6.208934045789238 -7.533503068377062 7.043534261423604
head 6.082134579679194 -3.050072651585811 1.040634292279777
lclavicle -1.8059206705692987e-14 -4.832920792654939e-15
lhumerus -58.7795992310039 -6.63739624516457 91.98970884677978
lradius 109.06406930838924
lwrist 34.255784204740436
lhand -25.971483829798753 6.550310277456546
lfingers nan
lthumb 0.8025266641010577 36.308467057621414
rclavicle -1.739268713623468e-14 -1.7771767330840004e-15
rhumerus -40.419338586511714 10.684605278534333 -94.97417753330174
rradius 118.2889399400324
rwrist -13.978785157804596
rhand -24.190473981408097 nan
rfingers nan
rthumb 2.488447154962768 -0.6601758795990946
111
root 1.096007848598601 18.357114085747902 44.24869652245273 3.134619535178859 0.6185173080392967 -1.7107499425800998
lfemur -39.71891709641877 2.6192433135381705 -13.408717433314894
ltibia 54.30277106144007
lfoot 1.5079442955517584 2.3535199665206825
ltoes -3.5170762358267673
rfemur -0.4029739519594244 -0.8581709823054182 28.104664493186718
rtibia 67.12203356899288
rfoot 6.337477377566319 -3.251122576448161
rtoes -2.6280594350569757
lowerback nan -0.2623198052911674 1.9515115480892131
upperback -0.6188340127413685 2.8108295938952734 -0.26534073172975225
thorax -6.1946565299572836 0.2922101656546272 0.915109833125485
lowerneck -18.449246444839602 -5.511304661876871 -2.140279397192098
upperneck 6.626167643085717 -7.529227822334603 7.020230886074861
head 6.243995926045396 -3.0954520987019225 1.012167993628772
lclavicle -2.1952285989783357e-14 1.1884085595676864e-14
lhumerus -59.38275211377057 -6.366829745570155 91.85119570763769
lradius 109.38129232443383
lwrist 33.88242785638877
lhand -26.366617760947925 6.0644709938976025
lfingers nan
lthumb 0.4331822702297765 35.86712410302878
rclavicle -2.0915500993170276e-14 1.4596357992219545e-14
rhumerus -40.71269070641959 10.872605342566477 -94.36791852090202
rradius 119.07082391269044
rwrist -15.693416532256968
rhand -21.02880959714508 nan
rfingers nan
rthumb 5.424354995566418 -1.3822152070206677
112
root 1.1104534944884685 18.367484005226718 44.78221037617202 2.886069022421938 0.6952393978150841 -1.264648068758472
lfemur -39.615039722371776 1.1772282669544425 -14.142423282365002
ltibia 49.78259701158201
lfoot 1.4157721407094588 2.754490611541126
ltoes -3.5613014881698017
rfemur 0.7039073143159627 -1.193598984312915 27.058161164598996
rtibia 65.5957235674389
rfoot 11.563382253695877 -2.3768046981169295
rtoes -7.530878032323432
lowerback nan -0.24066168920975628 1.7336153787345299
upperback -0.6413233096182014 2.7516039155413416 -0.3728166678467557
thorax -6.158514638433247 0.28165903760150623 0.9150552753263157
lowerneck -18.177565982690062 -5.517910039601165 -2.1174096295221876
upperneck 6.845299469496747 -7.5606767624444045 6.969729156635599
head 6.295455584754084 -3.150939259166347 0.9807715484914372
lclavicle 4.6920150164493126e-14 -1.985169791272924e-15
lhumerus -59.9043919459392 -6.084200647915933 91.59112352131604
lradius 109.50346823306344
lwrist 33.915995489923176
lhand -27.753117290528 8.591519844062603
lfingers nan
lthumb -0.888377203747255 38.43230780468062
rclavicle 4.788769926719336e-14 1.0528260129955945e-15
rhumerus -41.244099564363644 11.27044567761095 -94.04647445941364
rradius 119.69667754884253
rwrist -15.420741182073844
rhand -20.600658707957006 nan
rfingers nan
rthumb 5.722534450528316 -1.5109461983131087
113
root 1.1125681501383453 18.3559760132925 44.91469585031649 2.694579092325702 1.013814077924754 -0.9901128513942947
lfemur -39.13506594337254 -0.3645646628568422 -14.557953183112701
ltibia 45.08577248476609
lfoot 1.0140235659699184 2.5775851032222814
ltoes -6.132925834145826
rfemur 1.1646540945005412 -1.4982197819738476 26.256267328017515
rtibia 64.29266037172454
rfoot 19.258784756866213 -1.4773148821145297
rtoes -0.813117092888727
lowerback nan -0.28530219364492704 1.5575495540336457
upperback -0.7689718868811519 2.6512319004979084 -0.4145402255194539
thorax -6.640620427618491 0.24441229016281124 0.913878950658598
lowerneck -17.30678898317883 -5.552178991170711 -2.246628676098996
upperneck 6.61254134687373 -7.640508851293726 7.186816672238829
head 6.127832968509175 -3.205024809432272 1.0496236912415962
lclavicle -2.807532502713699e-14 -1.4055730119732236e-14
lhumerus -60.56922168574068 -5.681554161351557 91.19088188891614
lradius 109.76262433795506
lwrist 34.37496999933588
lhand -29.133433559956845 6.969372662214271
lfingers nan
lthumb -2.1549595824925865 36.81816716153867
rclavicle -2.6619083333927843e-14 -1.0992567141164924e-14
rhumerus -41.92419967532306 11.61011240782533 -93.81378486665588
rradius 120.06910492606984
rwrist -14.839018850021382
rhand -20.389054646170614 nan
rfingers nan
rthumb 5.828260278784745 -0.2888279518989183
114
root 1.122143567905796 18.353508623269942 45.48278712407874 2.5163451345490055 1.3163142614255976 -0.7221689540961034
lfemur -38.601267115294064 -2.072622824856264 -14.917736934322777
ltibia 40.16908437368265
lfoot 1.0568539087548294 2.0849984618495743
ltoes -5.853506177716343
rfemur 1.3451849911988667 -1.927997776726794 25.41361851452025
rtibia 63.43027467609093
rfoot 24.504361162558816 -0.9850644442308125
rtoes 6.225884924018878
lowerback nan -0.3894652015194492 1.4250393288378729
upperback -0.8423477827970252 2.5085436097519054 -0.478867384410564
thorax -6.820820635441834 0.17443504414894484 0.9129611609793846
lowerneck -16.545131646837643 -5.581938999391257 -2.3366706127403334
upperneck 6.387717275142274 -7.675924850063334 7.405424296771395
head 5.972462787686545 -3.2412722446517326 1.1164197009526982
lclavicle 1.1485485962967099e-14 1.1866075574850967e-14
lhumerus -61.252574383996816 -5.2293586851808715 90.66832406639763
lradius 110.23996378732157
lwrist 34.798618595524864
lhand -30.099648542946653 7.11443877080916
lfingers nan
lthumb -3.0700717927288217 36.94756734383044
rclavicle 1.2635412320372612e-14 1.491245638875234e-14
rhumerus -42.686567148884095 11.930159586564294 -93.7968441925952
rradius 120.39593610966585
rwrist -14.21158687371692
rhand -20.341856332541745 nan
rfingers nan
rthumb 5.82193121100138 1.2902179716742257
115
root 1.130263483596758 18.32849806328667 45.53435263360299 2.324117969578097 1.556854630243947 -0.4596665437400236
lfemur -37.73950713521153 -3.6787917468197215 -15.276605543712332
ltibia 35.169007402702434
lfoot 1.2825392938296005 1.7366283385533396
ltoes -7.162978970822083
rfemur 1.1158745869819633 -2.148888220146992 24.70418424391628
rtibia 63.04824899232931
rfoot 27.69513476663557 -0.7257167676835481
rtoes 12.87469232995108
lowerback nan -0.4754884551210877 1.273856446653739
upperback -0.8156809832793582 2.394588888454974 -0.5521058202948754
thorax -6.7900332769418625 0.10562164167198307 0.9501914964134441
lowerneck -16.31027388925147 -5.63046135834087 -2.380548021099168
upperneck 6.3691940592434815 -7.717675175550005 7.518204131334166
head 5.970654117780917 -3.284020789814136 1.1436784905130044
lclavicle 2.707830571277299e-14 1.2560949233009542e-14
lhumerus -61.80300931121134 -4.829345835582849 90.13133180747734
lradius 110.75619972437771
lwrist 34.98695264380032
lhand -31.314466574760853 10.362646140631327
lfingers nan
lthumb -4.246968553556093 40.30540937524638
rclavicle 2.8008171265321018e-14 1.5661517671976954e-14
rhumerus -43.426823144259686 12.20886006087049 -93.83660882504195
rradius 120.575215374473
rwrist -14.204187227899334
rhand -20.523009928821878 nan
rfingers nan
rthumb 5.639753306649542 3.1457415725541393
